<?xml version="1.0" encoding="UTF-8" standalone="no"?>
<!DOCTYPE svg PUBLIC "-//W3C//DTD SVG 1.1//EN" "http://www.w3.org/Graphics/SVG/1.1/DTD/svg11.dtd">
<svg width="100%" height="100%" viewBox="0 0 1920 658" version="1.1" xmlns="http://www.w3.org/2000/svg" xmlns:xlink="http://www.w3.org/1999/xlink" xml:space="preserve" xmlns:serif="http://www.serif.com/" style="fill-rule:evenodd;clip-rule:evenodd;stroke-linecap:round;stroke-linejoin:round;stroke-miterlimit:1.5;">
    <g transform="matrix(0.643432,0,0,0.643432,609.677,89.9703)">
        <circle cx="1440.54" cy="434.539" r="134.539" style="fill:none;stroke:rgb(160,63,95);stroke-width:53.9px;"/>
    </g>
    <g transform="matrix(-0.542351,0.840152,-0.840152,-0.542351,2895.37,-760.52)">
        <rect x="1468" y="314" width="452" height="36" style="fill:rgb(160,63,95);"/>
    </g>
    <g transform="matrix(-0.866025,-0.5,0.5,-0.866025,3294.77,1546.11)">
        <rect x="1468" y="314" width="452" height="36" style="fill:rgb(160,63,95);"/>
    </g>
    <g transform="matrix(0.765047,0.643974,-0.643974,0.765047,1086.57,-1033.13)">
        <g transform="matrix(-0.247466,0.383348,-0.840152,-0.542351,1909.19,49.5431)">
            <rect x="1468" y="314" width="452" height="36" style="fill:rgb(160,63,95);"/>
        </g>
        <g transform="matrix(-0.247466,0.383348,-0.840152,-0.542351,1937.19,-138.932)">
            <rect x="1468" y="314" width="452" height="36" style="fill:rgb(160,63,95);"/>
        </g>
        <g transform="matrix(0.17153,0.117995,-0.56675,0.82389,1130.72,-43.9176)">
            <rect x="1468" y="314" width="452" height="36" style="fill:rgb(160,63,95);"/>
        </g>
    </g>
</svg>
