<?xml version="1.0" encoding="UTF-8" standalone="no"?>
<!DOCTYPE svg PUBLIC "-//W3C//DTD SVG 1.1//EN" "http://www.w3.org/Graphics/SVG/1.1/DTD/svg11.dtd">
<svg width="100%" height="100%" viewBox="0 0 548 500" version="1.1" xmlns="http://www.w3.org/2000/svg" xmlns:xlink="http://www.w3.org/1999/xlink" xml:space="preserve" xmlns:serif="http://www.serif.com/" style="fill-rule:evenodd;clip-rule:evenodd;stroke-linejoin:round;stroke-miterlimit:2;">
    <g transform="matrix(1,0,0,1,-252,3.55271e-15)">
        <g transform="matrix(1,0,0,1,300,-3.55271e-15)">
            <path d="M500,0L0,0L0,500L500,500L316,258.416L500,0Z" style="fill:rgb(160,63,95);"/>
        </g>
        <g transform="matrix(0.170758,0,0,1,252,0)">
            <rect x="0" y="-0" width="571" height="500" style="fill:rgb(160,63,95);"/>
        </g>
        <g transform="matrix(0.804468,0,0,0.804468,231.49,44.123)">
            <g transform="matrix(1.23445,0,0,1.23445,257.04,297.225)">
                <path d="M0,-66.707C-0.005,-66.908 -0.01,-67.109 -0.015,-67.31C-0.999,-67.212 -1.982,-67.114 -2.967,-67.016C-2.956,-66.796 -2.944,-66.576 -2.934,-66.355C-1.936,-65.566 -0.975,-66.437 0,-66.707M-18.386,-43.994C-19.671,-43.007 -19.604,-41.184 -18.386,-40.268L-18.386,-43.994ZM80.836,-58.573L81.343,-58.798C81.051,-59.335 80.888,-60.116 80.437,-60.353C79.66,-60.764 78.999,-60.333 78.687,-59.378C79.444,-59.094 80.141,-58.833 80.836,-58.573M78.989,-68.866C78.855,-67.946 78.77,-67.361 78.686,-66.777C79.465,-66.802 80.243,-66.828 81.022,-66.853C81.05,-67.035 81.078,-67.216 81.106,-67.398C80.549,-67.785 79.99,-68.172 78.989,-68.866M85.625,-58.323C86.104,-57.778 86.015,-55.271 85.189,-54.64C84.895,-54.415 84.288,-54.27 83.993,-54.42C79.553,-56.685 74.763,-55.722 70.108,-56.004C69.104,-56.064 68.112,-56.327 67.107,-56.414C66.597,-56.458 66.07,-56.27 65.551,-56.27C64.128,-56.269 62.705,-56.308 61.282,-56.341C61.057,-56.347 60.826,-56.456 60.606,-56.432C58.441,-56.191 56.284,-55.851 54.113,-55.698C50.518,-55.446 46.916,-55.261 43.313,-55.143C40.349,-55.045 37.376,-55.163 34.413,-55.043C31.321,-54.917 28.239,-54.541 25.146,-54.429C23.212,-54.358 21.265,-54.673 19.325,-54.639C15.48,-54.572 11.64,-54.326 7.795,-54.269C5.69,-54.237 3.582,-54.439 1.477,-54.537C1.428,-54.539 1.358,-54.58 1.335,-54.56C-0.021,-53.418 -1.71,-54.142 -3.206,-53.764C-3.891,-53.591 -4.633,-53.657 -5.342,-53.565C-7.509,-53.286 -9.628,-53.082 -11.786,-53.887C-13.111,-54.381 -14.724,-52.891 -14.98,-51.539C-15.804,-47.181 -14.969,-42.845 -14.963,-38.501C-14.958,-35.097 -15.134,-31.693 -15.107,-28.289C-15.087,-25.721 -14.768,-23.155 -14.775,-20.588C-14.784,-17.519 -15.063,-14.452 -15.105,-11.381C-15.139,-8.945 -14.989,-6.506 -14.928,-4.068C-14.845,-0.744 -14.698,2.582 -14.707,5.907C-14.72,11.323 -14.968,16.742 -14.878,22.156C-14.749,30.007 -14.37,37.854 -14.178,45.706C-14.116,48.237 -14.36,50.773 -14.374,53.308C-14.401,58.274 -14.346,63.241 -14.36,68.207C-14.37,71.553 -14.505,74.9 -14.465,78.246C-14.42,82.008 -14.214,85.77 -14.13,89.533C-14.059,92.748 -14.037,95.962 -14.039,99.178C-14.041,102.483 -13.832,102.566 -10.643,102.267C-8.43,102.06 -6.175,102.291 -3.938,102.34C-0.365,102.42 3.208,102.585 6.781,102.582C11.196,102.577 15.611,102.389 20.027,102.372C22.895,102.361 25.762,102.549 28.63,102.582C31.101,102.609 31.347,101.856 31.145,99.409C30.869,96.042 31.145,92.631 31.159,89.24C31.162,88.431 30.994,87.618 31.04,86.814C31.097,85.792 30.934,84.431 31.508,83.837C32.418,82.898 33.662,82.189 35.324,82.552C36.782,82.87 38.368,82.573 39.896,82.604C42.407,82.656 44.918,82.792 47.429,82.812C48.422,82.82 49.435,82.694 50.405,82.481C51.704,82.196 52.971,81.762 54.255,81.406C54.384,81.371 54.619,81.374 54.67,81.45C55.449,82.619 56.57,82.157 57.65,82.322C58.955,82.52 60.111,82.317 61.353,82.266C63.727,82.167 66.135,81.955 68.485,82.627C70.103,83.089 70.951,82.402 71.047,80.751C71.071,80.334 71.496,79.643 71.799,79.608C72.256,79.554 72.972,79.831 73.221,80.204C74.202,81.678 74.682,81.95 76.025,80.924C77.023,80.163 77.7,80.612 78.543,81.018C79.226,81.346 79.983,81.515 80.676,81.828C81.989,82.42 83.34,82.966 84.558,83.721C85.521,84.318 85.959,85.199 84.932,86.271C84.745,86.465 84.888,87.249 85.139,87.522C85.515,87.931 86.092,88.207 86.633,88.406C88.445,89.074 88.809,88.806 88.957,86.813C89.086,86.786 89.215,86.759 89.345,86.732C89.51,87.582 89.676,88.43 89.894,89.548C91.918,90.755 92.479,93.921 90.942,96.363C90.536,97.008 90.622,97.982 90.553,98.81C90.53,99.074 90.886,99.403 90.816,99.623C89.828,102.752 91.562,106.13 89.938,109.199C89.833,109.398 89.864,109.673 89.848,109.915C89.669,112.427 89.493,114.94 89.315,117.454C89.312,117.501 89.275,117.552 89.284,117.595C89.815,120.25 88.37,121.781 86.185,122.726C85.19,123.155 84.037,123.321 82.942,123.388C81.024,123.507 79.095,123.499 77.171,123.457C76.566,123.444 75.968,123.161 75.367,122.995C75.139,122.932 74.78,122.726 74.708,122.802C73.625,123.942 72.731,123.144 71.658,122.721C71.065,122.488 70.183,123.137 69.433,123.13C67.022,123.108 64.61,123.014 62.207,122.845C61.217,122.776 60.25,122.417 59.263,122.252C58.963,122.203 58.632,122.385 58.311,122.414C56.648,122.555 54.985,122.691 53.32,122.808C52.898,122.837 52.47,122.768 52.046,122.78C50.797,122.817 49.548,122.938 48.302,122.905C44.938,122.818 41.576,122.638 38.213,122.549C33.341,122.42 28.469,122.323 23.597,122.245C21.796,122.216 19.992,122.34 18.193,122.288C16.397,122.234 14.606,121.962 12.812,121.951C11.917,121.945 11.024,122.337 10.121,122.493C9.615,122.579 9.083,122.611 8.573,122.558C6.757,122.371 4.949,122.103 3.132,121.928C1.492,121.771 -0.154,121.68 -1.799,121.587C-3.552,121.489 -5.306,121.413 -7.061,121.351C-7.279,121.343 -7.499,121.534 -7.725,121.551C-8.604,121.617 -9.486,121.633 -10.365,121.7C-11.032,121.751 -11.7,121.944 -12.358,121.907C-13.202,121.858 -14.036,121.642 -15.136,121.453C-15.151,121.623 -15.198,122.154 -15.261,122.852C-15.49,122.783 -15.848,122.783 -16.025,122.603C-17.362,121.25 -18.583,121.215 -20.188,122.288C-21.089,122.889 -22.153,123.284 -23.193,123.615C-23.458,123.699 -24.119,123.26 -24.24,122.931C-24.589,121.983 -25.23,121.735 -26.146,121.654C-28.516,121.444 -30.874,121.045 -33.246,120.931C-35.638,120.815 -38.043,121.005 -40.44,120.964C-45.843,120.87 -51.244,120.618 -56.645,120.627C-59.261,120.632 -61.88,121.32 -64.491,121.272C-67.515,121.217 -70.651,121.683 -73.543,120.387C-75.032,119.72 -73.99,118.494 -73.547,117.962C-72.782,117.044 -72.866,116.335 -73.371,115.476C-73.972,114.454 -73.957,113.548 -73.312,112.471C-72.999,111.95 -73.325,111.043 -73.365,110.312C-73.393,109.822 -73.641,109.176 -73.419,108.869C-72.476,107.563 -72.614,106.654 -74.223,106.114C-74.039,105.463 -73.965,104.866 -73.708,104.362C-73.18,103.33 -72.545,102.365 -73.542,101.245C-73.703,101.064 -73.776,100.568 -73.649,100.407C-72.079,98.416 -74.168,96.663 -73.971,94.782C-73.908,94.181 -73.71,93.589 -73.53,93.006C-73.38,92.525 -73.049,92.075 -72.999,91.59C-72.851,90.158 -72.671,88.708 -72.745,87.277C-72.862,85.001 -73.157,82.732 -73.41,80.464C-73.583,78.919 -73.86,77.385 -73.982,75.837C-74.009,75.501 -73.577,75.127 -73.353,74.765C-74.485,72.741 -73.401,70.667 -73.464,68.614C-73.546,65.964 -73.691,63.316 -73.746,60.667C-73.764,59.815 -73.584,58.959 -73.491,58.106C-73.435,57.592 -73.358,57.081 -73.312,56.566C-73.251,55.901 -73.317,55.204 -73.142,54.572C-72.647,52.79 -72.328,51.041 -73.146,49.26C-73.279,48.97 -73.35,48.53 -73.227,48.262C-72.509,46.709 -73.413,45.34 -73.6,43.887C-73.71,43.029 -73.482,42.126 -73.392,41.245C-73.344,40.78 -73.25,40.321 -73.2,39.857C-73.048,38.431 -72.867,37.007 -72.784,35.578C-72.755,35.088 -72.897,34.543 -73.11,34.095C-73.745,32.757 -74.204,31.466 -72.845,30.315C-74.073,28.842 -74.034,28.865 -73.023,27.065C-72.681,26.455 -72.453,25.708 -72.417,25.01C-72.286,22.441 -73.202,20.097 -74.013,17.707C-74.351,16.711 -74.039,15.497 -74.037,14.382C-74.036,13.907 -73.877,13.187 -74.121,12.993C-76.292,11.264 -73.997,8.982 -74.881,7.106C-74.928,7.007 -74.312,6.595 -73.928,6.263C-74.064,5.943 -74.211,5.594 -74.362,5.247C-74.458,5.024 -74.698,4.66 -74.639,4.602C-72.999,3.017 -75.346,0.954 -73.978,-0.715C-73.61,-1.163 -73.636,-2.014 -73.648,-2.677C-73.694,-5.103 -73.44,-7.621 -74.02,-9.922C-74.464,-11.688 -74.542,-13.101 -73.993,-14.825C-73.637,-15.939 -74.166,-17.328 -74.255,-18.597C-74.273,-18.855 -74.05,-19.121 -74.021,-19.392C-73.96,-19.969 -73.914,-20.553 -73.932,-21.132C-73.966,-22.269 -74.231,-23.434 -74.06,-24.535C-73.877,-25.704 -73.782,-26.687 -74.565,-27.706C-74.828,-28.046 -74.719,-28.829 -74.541,-29.323C-74.044,-30.695 -73.541,-31.969 -73.885,-33.54C-74.298,-35.427 -74.316,-37.399 -74.573,-39.325C-74.656,-39.945 -74.955,-40.536 -75.258,-41.449C-73.789,-43.796 -73.956,-46.81 -73.935,-49.749C-73.926,-50.919 -74.498,-52.103 -74.865,-53.262C-74.936,-53.487 -75.254,-53.678 -75.501,-53.794C-76.704,-54.364 -77.948,-54.852 -79.115,-55.486C-79.459,-55.673 -79.596,-56.242 -79.827,-56.636C-79.408,-56.789 -78.993,-57.046 -78.567,-57.066C-78.043,-57.091 -77.512,-56.858 -76.981,-56.843C-75.81,-56.811 -74.92,-57.138 -75.114,-58.598C-75.138,-58.786 -75.14,-59.019 -75.052,-59.173C-73.88,-61.197 -73.667,-63.397 -73.848,-65.667C-73.916,-66.521 -74.01,-67.375 -74.129,-68.225C-74.209,-68.799 -74.465,-69.369 -74.448,-69.935C-74.411,-71.19 -74.497,-72.303 -76.047,-72.521C-76.023,-72.769 -76.066,-72.976 -75.988,-73.042C-73.7,-74.992 -74.729,-77.807 -74.194,-80.2C-73.981,-81.156 -74.524,-82.281 -74.734,-83.39C-74.482,-84.849 -73.985,-86.487 -73.968,-88.13C-73.944,-90.413 -73.901,-92.816 -74.566,-94.951C-75.27,-97.207 -74.514,-99.215 -74.489,-101.332C-74.441,-105.295 -74.664,-109.276 -74.349,-113.216C-74.006,-117.505 -75.454,-121.55 -75.539,-125.752C-75.552,-126.369 -75.489,-127.014 -75.313,-127.602C-74.99,-128.675 -74.441,-129.707 -75.363,-130.764C-75.497,-130.917 -75.578,-131.314 -75.479,-131.443C-74.425,-132.823 -74.815,-134.48 -74.556,-136.008C-74.515,-136.248 -74.441,-136.499 -74.476,-136.731C-74.782,-138.787 -75.108,-140.84 -75.458,-143.078C-74.594,-143.7 -74.704,-144.512 -75.419,-145.532C-76.064,-146.452 -76.426,-147.426 -75.314,-148.522C-74.741,-149.086 -74.621,-150.213 -74.506,-151.112C-74.367,-152.205 -74.419,-153.327 -74.442,-154.436C-74.488,-156.62 -74.572,-158.804 -74.634,-160.988C-74.647,-161.426 -74.691,-161.873 -74.627,-162.301C-74.2,-165.148 -74.678,-167.912 -75.138,-170.72C-75.479,-172.798 -75.216,-174.971 -75.33,-177.095C-75.361,-177.687 -75.911,-178.241 -75.994,-178.844C-76.22,-180.507 -76.449,-182.191 -76.384,-183.856C-76.369,-184.238 -75.209,-184.736 -74.512,-184.894C-73.154,-185.202 -71.751,-185.439 -70.364,-185.453C-69.248,-185.465 -68.125,-185.115 -67.01,-184.901C-66.832,-184.868 -66.675,-184.614 -66.514,-184.619C-64.364,-184.693 -62.214,-184.77 -60.067,-184.902C-59.204,-184.956 -58.353,-185.166 -57.491,-185.268C-56.104,-185.43 -54.713,-185.564 -53.323,-185.703C-53.083,-185.726 -52.798,-185.791 -52.605,-185.695C-50.948,-184.871 -49.369,-185.677 -47.744,-185.812C-46.164,-185.944 -44.488,-186.626 -42.95,-185.542C-42.842,-185.466 -42.652,-185.416 -42.536,-185.456C-40.075,-186.3 -37.887,-185.313 -35.659,-184.493C-35.348,-184.379 -34.916,-184.565 -34.546,-184.641C-33.085,-184.94 -31.626,-185.249 -30.167,-185.558C-28.79,-185.85 -27.421,-186.197 -26.033,-186.417C-25.295,-186.534 -24.385,-186.691 -23.796,-186.375C-22.761,-185.821 -21.921,-185.879 -20.916,-186.326C-20.314,-186.594 -19.594,-186.704 -18.928,-186.698C-16.948,-186.681 -14.968,-186.546 -12.987,-186.516C-12.468,-186.507 -11.909,-186.624 -11.431,-186.83C-9.694,-187.575 -8.01,-187.198 -6.301,-186.74C-5.757,-186.594 -5.162,-186.524 -4.604,-186.571C-3.547,-186.661 -2.504,-186.945 -1.448,-186.999C4.61,-187.309 10.67,-187.611 16.732,-187.831C18.291,-187.887 19.878,-187.565 21.115,-188.87C22.893,-188.1 23.637,-189.723 24.824,-190.386C25.295,-190.649 26.363,-190.592 26.688,-190.243C28.621,-188.167 31.136,-188.49 33.513,-188.486C37.643,-188.48 41.773,-188.689 45.905,-188.761C46.723,-188.775 47.562,-188.65 48.354,-188.44C48.687,-188.351 49.157,-187.875 49.156,-187.576C49.153,-186.393 49.849,-186.383 50.711,-186.415C55.82,-186.607 60.931,-186.874 66.042,-186.925C69.869,-186.962 73.7,-186.706 77.529,-186.597C77.857,-186.587 78.192,-186.687 78.518,-186.762C79.04,-186.881 79.569,-187.168 80.074,-187.126C81.782,-186.982 83.422,-186.768 84.654,-188.452C84.847,-188.715 85.873,-188.424 86.495,-188.299C87.05,-188.188 87.574,-187.812 88.119,-187.797C89.655,-187.754 91.194,-187.868 92.731,-187.848C93.124,-187.843 93.811,-187.614 93.841,-187.412C93.898,-187.018 93.687,-186.481 93.408,-186.161C92.688,-185.332 92.158,-184.327 90.59,-184.745C89.793,-184.957 88.219,-184.423 87.908,-183.783C87.434,-182.803 87.715,-181.44 87.734,-180.241C87.75,-179.307 87.971,-178.366 87.897,-177.443C87.744,-175.513 87.409,-173.598 87.253,-171.667C87.201,-171.022 87.515,-170.355 87.573,-169.691C87.619,-169.175 87.625,-168.617 87.479,-168.129C87.188,-167.166 86.806,-166.228 86.409,-165.301C86.247,-164.923 86.008,-164.4 85.699,-164.313C85.394,-164.227 84.783,-164.501 84.605,-164.797C83.512,-166.612 81.861,-166.875 79.938,-166.791C74.869,-166.571 69.796,-166.44 64.725,-166.281C61.965,-166.195 59.09,-165.61 56.479,-166.195C54.098,-166.729 51.883,-165.985 49.608,-166.354C48.812,-166.483 47.964,-166.258 47.138,-166.229C44.319,-166.133 41.38,-165.507 38.711,-166.097C34.931,-166.932 31.384,-165.601 27.692,-165.845C22.548,-166.186 17.364,-166.013 12.199,-165.961C6.561,-165.905 0.924,-165.75 -4.714,-165.612C-7.609,-165.54 -10.504,-165.431 -13.398,-165.3C-15.663,-165.197 -16.374,-164.51 -16.366,-162.59C-16.351,-159.178 -16.306,-155.766 -16.354,-152.355C-16.397,-149.306 -16.636,-146.257 -16.626,-143.208C-16.617,-140.454 -16.378,-137.7 -16.261,-134.945C-16.216,-133.883 -16.226,-132.818 -16.216,-131.754C-16.191,-129.035 -15.888,-126.282 -16.207,-123.603C-16.839,-118.293 -16.189,-113.002 -16.338,-107.704C-16.454,-103.619 -16.175,-99.525 -16.122,-95.434C-16.071,-91.597 -16.14,-87.757 -16.056,-83.921C-15.969,-79.977 -15.777,-76.035 -15.573,-72.095C-15.558,-71.794 -15.124,-71.329 -14.813,-71.259C-10.213,-70.223 -5.578,-69.915 -0.888,-70.624C0.059,-70.767 1.103,-70.806 2.012,-70.561C4.681,-69.842 7.285,-70.331 9.918,-70.667C10.436,-70.734 10.995,-70.506 11.53,-70.389C11.711,-70.35 11.88,-70.157 12.047,-70.166C13.332,-70.233 14.615,-70.377 15.9,-70.415C19.242,-70.511 22.585,-70.559 25.927,-70.642C26.606,-70.659 27.286,-70.803 27.962,-70.782C28.939,-70.751 29.914,-70.632 30.889,-70.536C31.274,-70.498 31.781,-70.232 32.02,-70.391C33.576,-71.428 35.328,-70.455 36.904,-70.951C37.524,-71.145 38.147,-71.474 38.644,-71.89C39.394,-72.518 39.968,-72.583 40.843,-72.015C41.565,-71.545 42.532,-71.273 43.401,-71.247C45.092,-71.195 46.791,-71.473 48.483,-71.435C50.074,-71.399 51.658,-71.104 53.249,-70.978C54.05,-70.915 54.862,-70.946 55.667,-70.983C56.394,-71.017 57.117,-71.185 57.841,-71.173C61.45,-71.113 65.06,-70.962 68.669,-70.947C71.208,-70.937 73.748,-71.128 76.288,-71.161C77.792,-71.18 79.304,-70.962 80.802,-71.042C82.14,-71.114 83.457,-71.522 84.796,-71.649C86.485,-71.809 86.795,-71.413 86.282,-69.794C85.597,-67.628 85.408,-65.619 86.257,-63.318C86.752,-61.979 85.901,-60.143 85.625,-58.323" style="fill:rgb(235,235,235);fill-rule:nonzero;"/>
            </g>
            <g transform="matrix(0.572057,0,0,1.23445,148.401,315.005)">
                <path d="M0,-95.38C1.423,-99.057 0.942,-102.497 -0.203,-105.953C0.237,-107.171 0.755,-108.489 1.174,-109.839C1.29,-110.214 1.264,-110.807 1.038,-111.085C-0.351,-112.794 -0.229,-114.481 0.416,-116.516C0.703,-117.425 -0.355,-118.766 -0.821,-119.902C-0.959,-120.241 -1.357,-120.592 -1.302,-120.871C-1.032,-122.237 -0.651,-123.581 -0.306,-124.932C-0.247,-125.162 -0.09,-125.398 -0.116,-125.614C-0.327,-127.383 -0.535,-129.154 -0.818,-130.912C-0.965,-131.819 -1.307,-132.693 -1.482,-133.598C-1.929,-135.902 -1.644,-138.139 -1.226,-140.459C-0.766,-143.009 -0.97,-145.682 -0.918,-148.302C-0.907,-148.874 -1.089,-149.448 -1.088,-150.021C-1.084,-151.323 -0.888,-152.638 -1.01,-153.925C-1.256,-156.513 -1.652,-159.087 -2.01,-161.664C-2.166,-162.784 -2.41,-163.892 -2.548,-165.014C-2.584,-165.305 -2.464,-165.737 -2.255,-165.916C-1.188,-166.828 -0.987,-168.034 -0.872,-169.33C-0.59,-172.516 0.079,-175.712 -0.078,-178.871C-0.152,-180.356 -0.175,-181.709 0.079,-183.169C0.244,-184.114 -0.033,-185.241 -0.425,-186.151C-0.918,-187.292 -1.228,-188.175 0.428,-188.706C0.143,-189.177 -0.166,-189.509 -0.267,-189.895C-0.419,-190.478 -0.699,-191.263 -0.45,-191.673C0.481,-193.21 0.233,-194.797 -0.029,-196.371C-0.272,-197.829 0.016,-198.861 1.527,-199.366C1.876,-199.483 2.189,-199.761 2.471,-200.017C3.549,-200.996 5.136,-201.241 6.33,-200.364C7.803,-199.282 11.41,-200.009 12.564,-201.45C12.783,-201.724 13.367,-202.004 13.606,-201.895C13.98,-201.724 14.371,-201.26 14.46,-200.856C14.866,-199.016 15.256,-198.635 17.225,-198.478C18.971,-198.339 19.166,-197.942 18.506,-196.39C17.784,-194.693 17.326,-192.957 18.75,-191.318C18.989,-191.043 19.246,-190.564 19.166,-190.267C18.612,-188.206 19.37,-186.316 19.792,-184.375C19.871,-184.014 19.84,-183.554 19.68,-183.227C17.985,-179.752 18.313,-176.091 18.575,-172.417C18.647,-171.408 18.336,-170.375 18.39,-169.363C18.505,-167.189 18.925,-165.019 18.889,-162.852C18.836,-159.704 18.308,-156.56 18.321,-153.416C18.335,-149.839 17.615,-146.224 18.665,-142.671C18.793,-142.238 18.683,-141.735 18.683,-141.069C18.114,-141.306 17.753,-141.457 17.274,-141.656L17.274,-140.008C19.371,-139.921 19.874,-139.264 18.762,-137.524C17.674,-135.82 18.697,-134.426 18.863,-132.898C18.902,-132.534 19.077,-132.158 19.022,-131.815C18.783,-130.318 18.226,-128.826 18.264,-127.344C18.32,-125.142 18.773,-122.949 19.075,-120.755C19.408,-118.338 19.493,-115.979 18.765,-113.562C18.286,-111.971 18.233,-110.207 18.243,-108.523C18.258,-105.947 18.542,-103.373 18.585,-100.797C18.593,-100.332 17.99,-99.857 17.365,-99.554C17.343,-99.46 17.274,-99.344 17.306,-99.276C19.116,-95.358 18.137,-91.194 18.347,-87.142C18.531,-83.601 18.523,-80.05 18.624,-76.505C18.657,-75.316 19.134,-73.99 18.754,-72.97C18.003,-70.95 19.068,-68.996 18.548,-67.025C18.177,-65.62 18.788,-63.993 17.615,-62.749C18.789,-60.892 17.58,-58.093 19.884,-56.95C19.453,-55.981 18.843,-55.188 18.769,-54.348C18.45,-50.727 18.146,-47.094 18.113,-43.463C18.084,-40.36 18.5,-37.255 18.589,-34.146C18.647,-32.102 18.379,-30.049 18.438,-28.006C18.479,-26.585 18.843,-25.174 19.033,-23.756C19.136,-22.988 19.282,-22.202 19.22,-21.439C19.089,-19.83 18.397,-18.127 18.746,-16.653C19.146,-14.964 18.435,-13.568 18.44,-12.035C18.453,-8.76 18.38,-5.482 18.529,-2.214C18.597,-0.742 19.145,0.704 19.415,2.173C19.637,3.378 19.721,4.61 19.962,5.811C20.104,6.519 20.423,7.193 20.678,7.876C20.878,8.414 21.247,8.931 21.29,9.477C21.417,11.123 21.53,12.785 21.443,14.43C21.36,16.024 21.067,17.613 20.783,19.188C20.421,21.191 19.972,23.177 19.57,25.173C19.533,25.361 19.485,25.628 19.581,25.747C21.167,27.726 19.508,29.814 19.781,31.842C19.865,32.467 19.476,33.144 19.368,33.807C19.185,34.937 19.041,36.074 18.903,37.21C18.781,38.217 18.629,39.226 18.602,40.238C18.55,42.167 18.071,44.036 18.237,46.023C18.495,49.115 18.301,52.244 18.334,55.356C18.351,56.942 18.521,58.528 18.486,60.111C18.447,61.887 18.246,63.659 18.133,65.433C18.105,65.864 18.121,66.302 18.165,66.733C18.236,67.448 18.325,68.161 18.444,68.87C18.754,70.707 19.076,72.542 19.415,74.374C19.466,74.652 19.807,74.983 19.727,75.161C19.009,76.757 19.863,77.988 20.505,79.337C21.081,80.549 20.657,81.624 19.484,82.351C19.076,82.603 18.678,82.871 18.208,83.176C18.58,83.959 19.076,84.66 19.24,85.429C19.496,86.637 19.478,87.9 19.668,89.125C19.838,90.222 20.057,91.323 20.39,92.378C20.889,93.958 20.499,95.241 19.37,96.38C19.136,96.617 18.857,96.905 18.802,97.206C18.513,98.789 18.287,100.383 18.043,101.974C18.021,102.118 18.079,102.304 18.007,102.406C17.586,103 17.139,103.576 16.701,104.158C16.237,103.79 15.774,103.424 15.285,103.036C15.248,103.283 15.188,103.677 15.183,103.717C14.021,104.409 13.077,104.939 12.168,105.522C11.206,106.14 10.265,106.624 9.21,105.532C9.208,105.731 9.206,105.93 9.204,106.129C8.378,106.15 7.553,106.184 6.727,106.187C6.195,106.189 5.656,106.191 5.133,106.108C4.736,106.044 4.156,105.959 4.009,105.691C3.26,104.329 2.021,104.413 0.741,104.223C-0.21,104.082 -1.261,103.54 -1.93,102.851C-2.806,101.947 -2.577,100.946 -1.735,100.716C-1.574,99.643 -1.485,98.936 -1.357,98.236C-1.261,97.713 -0.884,97.123 -1.029,96.699C-1.581,95.081 -1.167,93.302 -2.007,91.714C-2.244,91.265 -3.027,89.951 -1.496,89.927C-1.577,88.761 -1.659,87.583 -1.742,86.386C-0.014,85.447 -0.193,85.05 -1.121,83.205C-1.717,82.021 -1.413,80.359 -1.411,78.911C-1.41,78.399 -1.177,77.85 -0.926,77.385C-0.515,76.622 -0.532,76.07 -1.274,75.49C-1.546,75.276 -1.75,74.503 -1.587,74.285C-0.564,72.92 -0.661,71.538 -0.9,69.927C-1.112,68.505 -0.775,66.943 -0.406,65.514C-0.15,64.52 0.118,63.747 -0.579,62.794C-0.903,62.352 -0.951,61.436 -0.721,60.911C0.012,59.247 0.163,57.545 -0.055,55.794C-0.107,55.376 -0.483,54.998 -0.707,54.609C0.007,52.745 0.725,50.873 1.443,49C1.376,48.944 1.31,48.887 1.244,48.83C0.659,49.374 0.074,49.918 -0.512,50.462C-0.623,50.398 -0.734,50.334 -0.845,50.27C-0.679,48.859 -0.512,47.448 -0.313,45.759C-1.779,44.98 -0.612,43.433 -0.653,42.089C-0.66,41.877 -0.261,41.653 -0.049,41.434C0.118,41.698 0.395,41.948 0.429,42.228C0.502,42.837 0.451,43.462 0.451,44.13C1.14,43.378 1.304,41.118 0.854,39.005C0.504,39.11 0.051,39.399 -0.166,39.274C-0.485,39.09 -0.637,38.614 -0.86,38.261C-0.543,38.061 -0.25,37.798 0.094,37.674C0.749,37.438 1.433,37.281 2.105,37.09C1.851,36.228 1.787,35.319 0.575,35.041C0.22,34.96 -0.07,33.959 -0.132,33.354C-0.324,31.462 -0.495,29.558 -0.479,27.661C-0.462,25.775 -0.167,23.892 -0.081,22.004C-0.047,21.262 -0.238,20.507 -0.347,19.761C-0.387,19.48 -0.632,19.129 -0.533,18.944C0.489,17.028 -0.863,15.378 -1.038,13.604C-1.202,11.941 -2.24,10.28 -1.169,8.539C-0.971,8.216 -1.137,7.58 -1.294,7.147C-1.581,6.354 -1.596,5.824 -0.946,5.067C-0.52,4.571 -0.482,3.208 -0.868,2.645C-2.137,0.792 -1.218,-1.06 -1.189,-2.897C-1.161,-4.753 -0.974,-6.606 -0.847,-8.46C-0.837,-8.594 -0.746,-8.723 -0.647,-8.969C-0.083,-8.783 0.461,-8.603 1.007,-8.423C1.208,-8.65 1.41,-8.878 1.611,-9.104C1.195,-9.242 0.732,-9.302 0.374,-9.53C-0.679,-10.198 -1.326,-11.073 -1.103,-12.453C-1.046,-12.807 -1.375,-13.395 -1.701,-13.606C-2.731,-14.275 -2.632,-15.177 -2.27,-16.057C-1.89,-16.981 -1.472,-17.971 -0.797,-18.668C-0.078,-19.409 0.044,-20.105 -0.114,-21.02C-0.416,-22.761 0.068,-24.627 -1.103,-26.25C-1.345,-26.586 -1.064,-27.389 -0.88,-27.928C0.049,-30.643 0.584,-33.354 -0.668,-36.12C-0.708,-36.208 -0.771,-36.306 -0.762,-36.394C-0.568,-38.401 -0.204,-40.409 -0.22,-42.413C-0.231,-43.84 0.872,-45.308 -0.316,-46.739C-0.537,-47.005 -0.62,-47.736 -0.432,-47.932C0.394,-48.795 0.103,-49.705 -0.123,-50.632C-0.392,-51.74 -0.257,-52.699 0.171,-53.829C0.534,-54.784 0.292,-56.287 -0.26,-57.199C-1.201,-58.753 -1.726,-60.099 -1.076,-61.94C-0.593,-63.308 -0.074,-64.867 -1.024,-66.311C-1.38,-66.854 -2.103,-67.241 -2.263,-67.81C-2.646,-69.164 -3.009,-70.589 -2.976,-71.977C-2.938,-73.576 -1.793,-72.887 -0.647,-72.394C-0.452,-74.165 -0.313,-75.778 -0.083,-77.379C0.108,-78.714 0.419,-80.031 0.645,-81.362C0.687,-81.612 0.665,-81.953 0.523,-82.14C-0.185,-83.076 -0.941,-83.975 -1.804,-85.037C-1.337,-85.213 -0.976,-85.292 -0.675,-85.472C0.143,-85.963 1.151,-86.353 0.624,-87.673C0.528,-87.914 0.653,-88.238 0.659,-88.524C0.681,-89.713 0.689,-90.903 0.717,-92.092C0.73,-92.65 0.566,-93.369 0.848,-93.733C1.742,-94.89 1.005,-95.138 0,-95.38" style="fill:rgb(235,235,235);fill-rule:nonzero;"/>
            </g>
        </g>
    </g>
</svg>
