<svg id="visual" viewBox="0 0 900 600" width="900" height="600" xmlns="http://www.w3.org/2000/svg" xmlns:xlink="http://www.w3.org/1999/xlink" version="1.1"><rect x="0" y="0" width="900" height="600" fill="#FFFFFF"></rect><path d="M0 472L21.5 473.8C43 475.7 86 479.3 128.8 486.2C171.7 493 214.3 503 257.2 504.2C300 505.3 343 497.7 385.8 493C428.7 488.3 471.3 486.7 514.2 473.8C557 461 600 437 642.8 430C685.7 423 728.3 433 771.2 433.8C814 434.7 857 426.3 878.5 422.2L900 418L900 601L878.5 601C857 601 814 601 771.2 601C728.3 601 685.7 601 642.8 601C600 601 557 601 514.2 601C471.3 601 428.7 601 385.8 601C343 601 300 601 257.2 601C214.3 601 171.7 601 128.8 601C86 601 43 601 21.5 601L0 601Z" fill="#F2F0EB" stroke-linecap="round" stroke-linejoin="miter"></path></svg>